<svg width="20" height="20" viewBox="0 0 20 20" fill="none" xmlns="http://www.w3.org/2000/svg">
<path fill-rule="evenodd" clip-rule="evenodd" d="M5.99992 5V6H4.66692C4.22917 6.0001 3.80736 6.16425 3.48469 6.46007C3.16202 6.7559 2.96194 7.16191 2.92392 7.598L2.09792 17.098C2.07686 17.3396 2.10624 17.5829 2.1842 17.8126C2.26215 18.0422 2.38699 18.2531 2.55078 18.432C2.71457 18.6108 2.91375 18.7536 3.13567 18.8514C3.35759 18.9492 3.59741 18.9998 3.83992 19H16.1599C16.4025 18.9999 16.6424 18.9495 16.8645 18.8517C17.0865 18.754 17.2858 18.6112 17.4497 18.4323C17.6136 18.2535 17.7386 18.0425 17.8166 17.8128C17.8946 17.5831 17.924 17.3397 17.9029 17.098L17.0769 7.598C17.0389 7.16173 16.8387 6.75558 16.5158 6.45973C16.1929 6.16389 15.7708 5.99985 15.3329 6H13.9999V5C13.9999 3.93913 13.5785 2.92172 12.8284 2.17157C12.0782 1.42143 11.0608 1 9.99992 1C8.93906 1 7.92164 1.42143 7.17149 2.17157C6.42135 2.92172 5.99992 3.93913 5.99992 5ZM9.99992 2.5C9.33688 2.5 8.701 2.76339 8.23216 3.23223C7.76331 3.70107 7.49992 4.33696 7.49992 5V6H12.4999V5C12.4999 4.33696 12.2365 3.70107 11.7677 3.23223C11.2988 2.76339 10.663 2.5 9.99992 2.5ZM7.49992 10C7.49992 10.663 7.76331 11.2989 8.23216 11.7678C8.701 12.2366 9.33688 12.5 9.99992 12.5C10.663 12.5 11.2988 12.2366 11.7677 11.7678C12.2365 11.2989 12.4999 10.663 12.4999 10V8.75C12.4999 8.55109 12.5789 8.36032 12.7196 8.21967C12.8602 8.07902 13.051 8 13.2499 8C13.4488 8 13.6396 8.07902 13.7803 8.21967C13.9209 8.36032 13.9999 8.55109 13.9999 8.75V10C13.9999 11.0609 13.5785 12.0783 12.8284 12.8284C12.0782 13.5786 11.0608 14 9.99992 14C8.93906 14 7.92164 13.5786 7.17149 12.8284C6.42135 12.0783 5.99992 11.0609 5.99992 10V8.75C5.99992 8.55109 6.07894 8.36032 6.21959 8.21967C6.36024 8.07902 6.55101 8 6.74992 8C6.94883 8 7.1396 8.07902 7.28025 8.21967C7.4209 8.36032 7.49992 8.55109 7.49992 8.75V10Z" fill="#222222"/>
</svg>
