<svg width="20" height="20" viewBox="0 0 20 20" fill="none" xmlns="http://www.w3.org/2000/svg">
<path fill-rule="evenodd" clip-rule="evenodd" d="M5.75 2C5.94891 2 6.13968 2.07902 6.28033 2.21967C6.42098 2.36032 6.5 2.55109 6.5 2.75V4H13.5V2.75C13.5 2.55109 13.579 2.36032 13.7197 2.21967C13.8603 2.07902 14.0511 2 14.25 2C14.4489 2 14.6397 2.07902 14.7803 2.21967C14.921 2.36032 15 2.55109 15 2.75V4H15.25C15.9793 4 16.6788 4.28973 17.1945 4.80546C17.7103 5.32118 18 6.02065 18 6.75V15.25C18 15.9793 17.7103 16.6788 17.1945 17.1945C16.6788 17.7103 15.9793 18 15.25 18H4.75C4.02065 18 3.32118 17.7103 2.80546 17.1945C2.28973 16.6788 2 15.9793 2 15.25V6.75C2 6.02065 2.28973 5.32118 2.80546 4.80546C3.32118 4.28973 4.02065 4 4.75 4H5V2.75C5 2.55109 5.07902 2.36032 5.21967 2.21967C5.36032 2.07902 5.55109 2 5.75 2ZM4.75 7.5C4.06 7.5 3.5 8.06 3.5 8.75V15.25C3.5 15.94 4.06 16.5 4.75 16.5H15.25C15.94 16.5 16.5 15.94 16.5 15.25V8.75C16.5 8.06 15.94 7.5 15.25 7.5H4.75Z" fill="#222222"/>
</svg>
