<svg width="20" height="20" viewBox="0 0 20 20" fill="none" xmlns="http://www.w3.org/2000/svg">
<path fill-rule="evenodd" clip-rule="evenodd" d="M5.22007 8.22003C5.3607 8.07958 5.55132 8.00069 5.75007 8.00069C5.94882 8.00069 6.13945 8.07958 6.28007 8.22003L10.0001 11.94L13.7201 8.22003C13.7887 8.14634 13.8715 8.08724 13.9635 8.04625C14.0555 8.00526 14.1548 7.98322 14.2556 7.98144C14.3563 7.97966 14.4563 7.99819 14.5497 8.03591C14.6431 8.07363 14.7279 8.12977 14.7991 8.20099C14.8703 8.27221 14.9265 8.35705 14.9642 8.45043C15.0019 8.54382 15.0204 8.64385 15.0187 8.74455C15.0169 8.84526 14.9948 8.94457 14.9539 9.03657C14.9129 9.12857 14.8538 9.21137 14.7801 9.28003L10.5301 13.53C10.3894 13.6705 10.1988 13.7494 10.0001 13.7494C9.80132 13.7494 9.6107 13.6705 9.47007 13.53L5.22007 9.28003C5.07962 9.13941 5.00073 8.94878 5.00073 8.75003C5.00073 8.55128 5.07962 8.36066 5.22007 8.22003Z" fill="#222222"/>
</svg>
