<svg width="20" height="20" viewBox="0 0 20 20" fill="none" xmlns="http://www.w3.org/2000/svg">
<path fill-rule="evenodd" clip-rule="evenodd" d="M14.78 5.21995C14.6394 5.0795 14.4488 5.00061 14.25 5.00061C14.0512 5.00061 13.8606 5.0795 13.72 5.21995L6.5 12.4399V6.74995C6.5 6.55104 6.42098 6.36027 6.28033 6.21962C6.13968 6.07897 5.94891 5.99995 5.75 5.99995C5.55109 5.99995 5.36032 6.07897 5.21967 6.21962C5.07902 6.36027 5 6.55104 5 6.74995V14.25C5 14.664 5.336 15 5.75 15H13.25C13.4489 15 13.6397 14.9209 13.7803 14.7803C13.921 14.6396 14 14.4489 14 14.25C14 14.051 13.921 13.8603 13.7803 13.7196C13.6397 13.579 13.4489 13.5 13.25 13.5H7.56L14.78 6.27995C14.9205 6.13933 14.9993 5.9487 14.9993 5.74995C14.9993 5.5512 14.9205 5.36058 14.78 5.21995Z" fill="#222222"/>
</svg>
