<svg width="20" height="20" viewBox="0 0 20 20" fill="none" xmlns="http://www.w3.org/2000/svg">
<path d="M10.75 10.818V13.432C11.1542 13.3646 11.5409 13.2178 11.888 13C12.37 12.685 12.5 12.352 12.5 12.125C12.5 11.898 12.37 11.565 11.888 11.25C11.5409 11.0322 11.1542 10.8854 10.75 10.818ZM8.33 8.62003C8.38333 8.67536 8.44467 8.73003 8.514 8.78403C8.722 8.94403 8.974 9.06803 9.25 9.14703V6.60303C9.13026 6.63758 9.01326 6.68103 8.9 6.73303C8.75933 6.79836 8.63067 6.87603 8.514 6.96603C8.137 7.25803 8 7.59303 8 7.87503C8 8.05903 8.058 8.26503 8.202 8.46703C8.23933 8.51836 8.282 8.57003 8.33 8.62003Z" fill="#222222"/>
<path fill-rule="evenodd" clip-rule="evenodd" d="M18 10C18 12.1217 17.1571 14.1566 15.6569 15.6569C14.1566 17.1571 12.1217 18 10 18C7.87827 18 5.84344 17.1571 4.34315 15.6569C2.84285 14.1566 2 12.1217 2 10C2 7.87827 2.84285 5.84344 4.34315 4.34315C5.84344 2.84285 7.87827 2 10 2C12.1217 2 14.1566 2.84285 15.6569 4.34315C17.1571 5.84344 18 7.87827 18 10ZM10 4C10.1989 4 10.3897 4.07902 10.5303 4.21967C10.671 4.36032 10.75 4.55109 10.75 4.75V5.066C11.3502 5.16784 11.9171 5.41236 12.403 5.779C12.829 6.109 13.147 6.519 13.328 6.979C13.3951 7.16273 13.3877 7.36539 13.3075 7.54377C13.2272 7.72214 13.0805 7.86213 12.8985 7.93386C12.7166 8.0056 12.5138 8.00342 12.3334 7.92779C12.1531 7.85216 12.0094 7.70906 11.933 7.529C11.8376 7.30438 11.6831 7.10982 11.486 6.966C11.2656 6.79991 11.0159 6.67677 10.75 6.603V9.3C11.448 9.393 12.133 9.62 12.709 9.996C13.496 10.51 13.999 11.266 13.999 12.126C13.999 12.986 13.495 13.742 12.709 14.256C12.133 14.633 11.448 14.859 10.749 14.952V15.251C10.749 15.4499 10.67 15.6407 10.5293 15.7813C10.3887 15.922 10.1979 16.001 9.999 16.001C9.80009 16.001 9.60932 15.922 9.46867 15.7813C9.32802 15.6407 9.249 15.4499 9.249 15.251V14.951C8.552 14.859 7.867 14.633 7.291 14.256C6.809 13.941 6.434 13.539 6.213 13.068C6.12866 12.8878 6.11937 12.6814 6.18716 12.4944C6.25496 12.3073 6.39429 12.1548 6.5745 12.0705C6.75471 11.9862 6.96105 11.9769 7.14812 12.0447C7.33519 12.1125 7.48766 12.2518 7.572 12.432C7.652 12.605 7.817 12.808 8.112 13.001C8.425 13.206 8.818 13.354 9.25 13.433V10.685C8.64984 10.5832 8.08294 10.3386 7.597 9.972C6.9 9.433 6.5 8.681 6.5 7.875C6.5 7.07 6.9 6.317 7.597 5.779C8.08294 5.41236 8.64984 5.16784 9.25 5.066V4.75C9.25 4.55109 9.32902 4.36032 9.46967 4.21967C9.61032 4.07902 9.80109 4 10 4Z" fill="#222222"/>
</svg>
