<svg width="20" height="20" viewBox="0 0 20 20" fill="none" xmlns="http://www.w3.org/2000/svg">
<path d="M10 12.5C10.663 12.5 11.2989 12.2366 11.7678 11.7678C12.2366 11.2989 12.5 10.663 12.5 10C12.5 9.33696 12.2366 8.70107 11.7678 8.23223C11.2989 7.76339 10.663 7.5 10 7.5C9.33696 7.5 8.70107 7.76339 8.23223 8.23223C7.76339 8.70107 7.5 9.33696 7.5 10C7.5 10.663 7.76339 11.2989 8.23223 11.7678C8.70107 12.2366 9.33696 12.5 10 12.5Z" fill="#222222"/>
<path fill-rule="evenodd" clip-rule="evenodd" d="M0.663954 10.59C0.516963 10.2083 0.516963 9.78567 0.663954 9.404C1.39071 7.51818 2.67182 5.89681 4.33843 4.75361C6.00504 3.6104 7.97894 2.999 9.99995 3C14.257 3 17.893 5.66 19.336 9.41C19.483 9.791 19.482 10.214 19.336 10.596C18.6092 12.4818 17.3281 14.1032 15.6615 15.2464C13.9949 16.3896 12.021 17.001 9.99995 17C5.74295 17 2.10695 14.34 0.663954 10.59ZM14 10C14 11.0609 13.5785 12.0783 12.8284 12.8284C12.0782 13.5786 11.0608 14 9.99995 14C8.93909 14 7.92167 13.5786 7.17153 12.8284C6.42138 12.0783 5.99995 11.0609 5.99995 10C5.99995 8.93914 6.42138 7.92172 7.17153 7.17157C7.92167 6.42143 8.93909 6 9.99995 6C11.0608 6 12.0782 6.42143 12.8284 7.17157C13.5785 7.92172 14 8.93914 14 10Z" fill="#222222"/>
</svg>
