<svg width="20" height="20" viewBox="0 0 20 20" fill="none" xmlns="http://www.w3.org/2000/svg">
<path fill-rule="evenodd" clip-rule="evenodd" d="M3.27985 2.21997C3.13767 2.08749 2.94963 2.01537 2.75532 2.01879C2.56102 2.02222 2.37564 2.10093 2.23822 2.23835C2.10081 2.37576 2.0221 2.56114 2.01867 2.75545C2.01524 2.94975 2.08737 3.13779 2.21985 3.27997L16.7198 17.78C16.7885 17.8537 16.8713 17.9128 16.9633 17.9537C17.0553 17.9947 17.1546 18.0168 17.2553 18.0186C17.356 18.0203 17.4561 18.0018 17.5494 17.9641C17.6428 17.9264 17.7277 17.8702 17.7989 17.799C17.8701 17.7278 17.9262 17.643 17.964 17.5496C18.0017 17.4562 18.0202 17.3561 18.0184 17.2554C18.0167 17.1547 17.9946 17.0554 17.9536 16.9634C17.9126 16.8714 17.8535 16.7886 17.7798 16.72L16.0348 14.975C17.5204 13.8499 18.6631 12.3332 19.3348 10.595C19.4816 10.2136 19.4816 9.79134 19.3348 9.40997C18.609 7.52302 17.3284 5.90038 15.6617 4.75605C13.995 3.61171 12.0206 2.99944 9.99885 2.99997C8.34284 2.9974 6.71233 3.40777 5.25485 4.19397L3.27985 2.21997ZM7.75185 6.68997L8.84385 7.78197C9.31561 7.53539 9.85377 7.44583 10.38 7.52633C10.9062 7.60684 11.3929 7.8532 11.7694 8.22955C12.1459 8.6059 12.3924 9.09259 12.473 9.61877C12.5537 10.1449 12.4643 10.6831 12.2178 11.155L13.3088 12.247C13.8324 11.4771 14.071 10.5487 13.9836 9.62177C13.8961 8.69485 13.488 7.82748 12.8297 7.16913C12.1713 6.51079 11.304 6.10272 10.377 6.01525C9.45012 5.92778 8.52172 6.1664 7.75185 6.68997Z" fill="#222222"/>
<path d="M10.748 13.93L13.271 16.453C12.219 16.816 11.1138 17.0009 10.001 17C5.74295 17 2.10695 14.34 0.663954 10.59C0.516963 10.2083 0.516963 9.78569 0.663954 9.40402C1.15225 8.14034 1.89222 6.98905 2.83895 6.02002L6.06995 9.25202C6.02329 9.49469 5.99995 9.74402 5.99995 10C5.99987 10.5887 6.12974 11.1702 6.3803 11.703C6.63086 12.2357 6.99593 12.7066 7.44944 13.082C7.90296 13.4573 8.43375 13.728 9.00393 13.8746C9.57411 14.0212 10.1696 14.0401 10.748 13.93Z" fill="#222222"/>
</svg>
