<svg width="20" height="20" viewBox="0 0 20 20" fill="none" xmlns="http://www.w3.org/2000/svg">
<path fill-rule="evenodd" clip-rule="evenodd" d="M3.5 2C3.10218 2 2.72064 2.15804 2.43934 2.43934C2.15804 2.72064 2 3.10218 2 3.5V15C2 15.7956 2.31607 16.5587 2.87868 17.1213C3.44129 17.6839 4.20435 18 5 18C5.79565 18 6.55871 17.6839 7.12132 17.1213C7.68393 16.5587 8 15.7956 8 15V3.5C8 3.10218 7.84196 2.72064 7.56066 2.43934C7.27936 2.15804 6.89782 2 6.5 2H3.5ZM15.253 8.99L9.5 14.743V6.257L11.01 4.747C11.1493 4.60761 11.3147 4.49703 11.4968 4.42159C11.6788 4.34615 11.8739 4.30732 12.071 4.30732C12.2681 4.30732 12.4632 4.34615 12.6452 4.42159C12.8273 4.49703 12.9927 4.60761 13.132 4.747L15.253 6.868C15.3924 7.0073 15.503 7.1727 15.5784 7.35475C15.6538 7.5368 15.6927 7.73194 15.6927 7.929C15.6927 8.12606 15.6538 8.3212 15.5784 8.50325C15.503 8.6853 15.3924 8.8507 15.253 8.99ZM8.364 18H16.5C16.8978 18 17.2794 17.842 17.5607 17.5607C17.842 17.2794 18 16.8978 18 16.5V13.5C18 13.1022 17.842 12.7206 17.5607 12.4393C17.2794 12.158 16.8978 12 16.5 12H14.364L8.364 18ZM5 16C5.26522 16 5.51957 15.8946 5.70711 15.7071C5.89464 15.5196 6 15.2652 6 15C6 14.7348 5.89464 14.4804 5.70711 14.2929C5.51957 14.1054 5.26522 14 5 14C4.73478 14 4.48043 14.1054 4.29289 14.2929C4.10536 14.4804 4 14.7348 4 15C4 15.2652 4.10536 15.5196 4.29289 15.7071C4.48043 15.8946 4.73478 16 5 16Z" fill="#222222"/>
</svg>
