<svg width="20" height="20" viewBox="0 0 20 20" fill="none" xmlns="http://www.w3.org/2000/svg">
<path fill-rule="evenodd" clip-rule="evenodd" d="M10 18C12.1217 18 14.1566 17.1571 15.6569 15.6569C17.1571 14.1566 18 12.1217 18 10C18 7.87827 17.1571 5.84344 15.6569 4.34315C14.1566 2.84285 12.1217 2 10 2C7.87827 2 5.84344 2.84285 4.34315 4.34315C2.84285 5.84344 2 7.87827 2 10C2 12.1217 2.84285 14.1566 4.34315 15.6569C5.84344 17.1571 7.87827 18 10 18ZM13.25 10.75C13.4489 10.75 13.6397 10.671 13.7803 10.5303C13.921 10.3897 14 10.1989 14 10C14 9.80109 13.921 9.61032 13.7803 9.46967C13.6397 9.32902 13.4489 9.25 13.25 9.25H8.66L10.76 7.3C10.9059 7.16474 10.992 6.97707 10.9995 6.77828C11.007 6.5795 10.9353 6.38587 10.8 6.24C10.6647 6.09413 10.4771 6.00797 10.2783 6.00047C10.0795 5.99297 9.88587 6.06474 9.74 6.2L6.24 9.45C6.16427 9.52021 6.10386 9.6053 6.06254 9.69994C6.02123 9.79458 5.9999 9.89673 5.9999 10C5.9999 10.1033 6.02123 10.2054 6.06254 10.3001C6.10386 10.3947 6.16427 10.4798 6.24 10.55L9.74 13.8C9.88587 13.9353 10.0795 14.007 10.2783 13.9995C10.4771 13.992 10.6647 13.9059 10.8 13.76C10.9353 13.6141 11.007 13.4205 10.9995 13.2217C10.992 13.0229 10.9059 12.8353 10.76 12.7L8.66 10.75H13.25Z" fill="#222222"/>
</svg>
