<svg width="20" height="20" viewBox="0 0 20 20" fill="none" xmlns="http://www.w3.org/2000/svg">
<path d="M15.5 2C15.1022 2 14.7206 2.15804 14.4393 2.43934C14.158 2.72064 14 3.10218 14 3.5V16.5C14 16.8978 14.158 17.2794 14.4393 17.5607C14.7206 17.842 15.1022 18 15.5 18H16.5C16.8978 18 17.2794 17.842 17.5607 17.5607C17.842 17.2794 18 16.8978 18 16.5V3.5C18 3.10218 17.842 2.72064 17.5607 2.43934C17.2794 2.15804 16.8978 2 16.5 2H15.5ZM9.5 6C9.10218 6 8.72064 6.15804 8.43934 6.43934C8.15804 6.72064 8 7.10218 8 7.5V16.5C8 16.8978 8.15804 17.2794 8.43934 17.5607C8.72064 17.842 9.10218 18 9.5 18H10.5C10.8978 18 11.2794 17.842 11.5607 17.5607C11.842 17.2794 12 16.8978 12 16.5V7.5C12 7.10218 11.842 6.72064 11.5607 6.43934C11.2794 6.15804 10.8978 6 10.5 6H9.5ZM3.5 10C3.10218 10 2.72064 10.158 2.43934 10.4393C2.15804 10.7206 2 11.1022 2 11.5V16.5C2 16.8978 2.15804 17.2794 2.43934 17.5607C2.72064 17.842 3.10218 18 3.5 18H4.5C4.89782 18 5.27936 17.842 5.56066 17.5607C5.84196 17.2794 6 16.8978 6 16.5V11.5C6 11.1022 5.84196 10.7206 5.56066 10.4393C5.27936 10.158 4.89782 10 4.5 10H3.5Z" fill="#222222"/>
</svg>
