<svg width="20" height="20" viewBox="0 0 20 20" fill="none" xmlns="http://www.w3.org/2000/svg">
<path fill-rule="evenodd" clip-rule="evenodd" d="M17 4.25C17 3.65326 16.7629 3.08097 16.341 2.65901C15.919 2.23705 15.3467 2 14.75 2H9.25C8.65326 2 8.08097 2.23705 7.65901 2.65901C7.23705 3.08097 7 3.65326 7 4.25V6.25C7 6.44891 7.07902 6.63968 7.21967 6.78033C7.36032 6.92098 7.55109 7 7.75 7C7.94891 7 8.13968 6.92098 8.28033 6.78033C8.42098 6.63968 8.5 6.44891 8.5 6.25V4.25C8.5 4.05109 8.57902 3.86032 8.71967 3.71967C8.86032 3.57902 9.05109 3.5 9.25 3.5H14.75C14.9489 3.5 15.1397 3.57902 15.2803 3.71967C15.421 3.86032 15.5 4.05109 15.5 4.25V15.75C15.5 15.9489 15.421 16.1397 15.2803 16.2803C15.1397 16.421 14.9489 16.5 14.75 16.5H9.25C9.05109 16.5 8.86032 16.421 8.71967 16.2803C8.57902 16.1397 8.5 15.9489 8.5 15.75V13.75C8.5 13.5511 8.42098 13.3603 8.28033 13.2197C8.13968 13.079 7.94891 13 7.75 13C7.55109 13 7.36032 13.079 7.21967 13.2197C7.07902 13.3603 7 13.5511 7 13.75V15.75C7 16.3467 7.23705 16.919 7.65901 17.341C8.08097 17.7629 8.65326 18 9.25 18H14.75C15.3467 18 15.919 17.7629 16.341 17.341C16.7629 16.919 17 16.3467 17 15.75V4.25Z" fill="#222222"/>
<path fill-rule="evenodd" clip-rule="evenodd" d="M14 10C14 9.80111 13.921 9.61035 13.7803 9.46969C13.6397 9.32904 13.4489 9.25002 13.25 9.25002H3.704L4.752 8.30702C4.82753 8.24177 4.88927 8.16209 4.93361 8.07267C4.97795 7.98324 5.00399 7.88587 5.01021 7.78625C5.01644 7.68663 5.00271 7.58677 4.96984 7.49252C4.93697 7.39827 4.88562 7.31154 4.81879 7.23739C4.75197 7.16325 4.67102 7.10319 4.58069 7.06073C4.49035 7.01827 4.39245 6.99428 4.29272 6.99014C4.19299 6.98601 4.09344 7.00183 3.99991 7.03667C3.90637 7.0715 3.82073 7.12466 3.748 7.19302L1.248 9.44302C1.17001 9.51335 1.10765 9.59927 1.06498 9.69522C1.0223 9.79117 1.00024 9.89501 1.00024 10C1.00024 10.105 1.0223 10.2089 1.06498 10.3048C1.10765 10.4008 1.17001 10.4867 1.248 10.557L3.748 12.807C3.82073 12.8754 3.90637 12.9285 3.99991 12.9634C4.09344 12.9982 4.19299 13.014 4.29272 13.0099C4.39245 13.0058 4.49035 12.9818 4.58069 12.9393C4.67102 12.8969 4.75197 12.8368 4.81879 12.7627C4.88562 12.6885 4.93697 12.6018 4.96984 12.5075C5.00271 12.4133 5.01644 12.3134 5.01021 12.2138C5.00399 12.1142 4.97795 12.0168 4.93361 11.9274C4.88927 11.838 4.82753 11.7583 4.752 11.693L3.704 10.75H13.25C13.3485 10.75 13.446 10.7306 13.537 10.6929C13.628 10.6552 13.7107 10.6 13.7803 10.5304C13.85 10.4607 13.9052 10.378 13.9429 10.287C13.9806 10.196 14 10.0985 14 10Z" fill="#222222"/>
</svg>
