<svg width="20" height="20" viewBox="0 0 20 20" fill="none" xmlns="http://www.w3.org/2000/svg">
<path fill-rule="evenodd" clip-rule="evenodd" d="M10 18C12.1217 18 14.1566 17.1571 15.6569 15.6569C17.1571 14.1566 18 12.1217 18 10C18 7.87827 17.1571 5.84344 15.6569 4.34315C14.1566 2.84285 12.1217 2 10 2C7.87827 2 5.84344 2.84285 4.34315 4.34315C2.84285 5.84344 2 7.87827 2 10C2 12.1217 2.84285 14.1566 4.34315 15.6569C5.84344 17.1571 7.87827 18 10 18ZM6.75 9.25C6.55109 9.25 6.36032 9.32902 6.21967 9.46967C6.07902 9.61032 6 9.80109 6 10C6 10.1989 6.07902 10.3897 6.21967 10.5303C6.36032 10.671 6.55109 10.75 6.75 10.75H13.25C13.4489 10.75 13.6397 10.671 13.7803 10.5303C13.921 10.3897 14 10.1989 14 10C14 9.80109 13.921 9.61032 13.7803 9.46967C13.6397 9.32902 13.4489 9.25 13.25 9.25H6.75Z" fill="#222222"/>
</svg>
