<svg width="20" height="20" viewBox="0 0 20 20" fill="none" xmlns="http://www.w3.org/2000/svg">
<path d="M12 9.00005C11.7348 9.00005 11.4804 8.8947 11.2929 8.70716C11.1054 8.51963 11 8.26527 11 8.00005V3.00005C11 2.44805 11.45 1.99305 11.997 2.07005C13.4942 2.28523 14.8814 2.97957 15.9509 4.04911C17.0205 5.11866 17.7148 6.50587 17.93 8.00306C18.008 8.55006 17.552 9.00005 17 9.00005H12Z" fill="#222222"/>
<path d="M8.003 4.07009C8.55 3.99409 9 4.44909 9 5.00009V10.0001C9 10.2653 9.10536 10.5197 9.29289 10.7072C9.48043 10.8947 9.73478 11.0001 10 11.0001H15C15.552 11.0001 16.008 11.4501 15.93 11.9971C15.6769 13.7484 14.77 15.3389 13.3918 16.4486C12.0135 17.5584 10.2662 18.1051 8.5012 17.9788C6.73622 17.8524 5.08455 17.0625 3.87841 15.7677C2.67226 14.473 2.00113 12.7696 2 11.0001C1.99967 9.31608 2.60644 7.68839 3.70904 6.41552C4.81164 5.14266 6.33615 4.30994 8.003 4.07009Z" fill="#222222"/>
</svg>
