<svg width="20" height="20" viewBox="0 0 20 20" fill="none" xmlns="http://www.w3.org/2000/svg">
<path fill-rule="evenodd" clip-rule="evenodd" d="M10 18C12.1217 18 14.1566 17.1571 15.6569 15.6569C17.1571 14.1566 18 12.1217 18 10C18 7.87827 17.1571 5.84344 15.6569 4.34315C14.1566 2.84285 12.1217 2 10 2C7.87827 2 5.84344 2.84285 4.34315 4.34315C2.84285 5.84344 2 7.87827 2 10C2 12.1217 2.84285 14.1566 4.34315 15.6569C5.84344 17.1571 7.87827 18 10 18ZM6.75 9.25C6.55109 9.25 6.36032 9.32902 6.21967 9.46967C6.07902 9.61032 6 9.80109 6 10C6 10.1989 6.07902 10.3897 6.21967 10.5303C6.36032 10.671 6.55109 10.75 6.75 10.75H11.34L9.24 12.7C9.09413 12.8353 9.00797 13.0229 9.00047 13.2217C8.99296 13.4205 9.06474 13.6141 9.2 13.76C9.33526 13.9059 9.52293 13.992 9.72172 13.9995C9.9205 14.007 10.1141 13.9353 10.26 13.8L13.76 10.55C13.8357 10.4798 13.8961 10.3947 13.9375 10.3001C13.9788 10.2054 14.0001 10.1033 14.0001 10C14.0001 9.89673 13.9788 9.79458 13.9375 9.69994C13.8961 9.6053 13.8357 9.52021 13.76 9.45L10.26 6.2C10.1878 6.13303 10.1031 6.08093 10.0107 6.0467C9.91834 6.01246 9.82015 5.99675 9.72172 6.00047C9.52293 6.00797 9.33526 6.09413 9.2 6.24C9.06474 6.38587 8.99296 6.5795 9.00047 6.77828C9.00797 6.97707 9.09413 7.16474 9.24 7.3L11.34 9.25H6.75Z" fill="#222222"/>
</svg>
