<svg width="20" height="20" viewBox="0 0 20 20" fill="none" xmlns="http://www.w3.org/2000/svg">
<path d="M4.35241 1.875C3.93824 1.875 3.54074 2.04 3.24824 2.33333L2.16491 3.415C1.60509 3.97377 1.278 4.72404 1.24958 5.51448C1.22116 6.30493 1.49354 7.07675 2.01178 7.67428C2.53002 8.27181 3.25556 8.65059 4.04208 8.73424C4.8286 8.81788 5.61759 8.60017 6.24991 8.125C6.77241 8.51667 7.42157 8.75 8.12491 8.75C8.82824 8.75 9.47824 8.51667 9.99991 8.125C10.5216 8.51667 11.1716 8.75 11.8749 8.75C12.5782 8.75 13.2274 8.51667 13.7499 8.125C14.3822 8.60017 15.1712 8.81788 15.9577 8.73424C16.7443 8.65059 17.4698 8.27181 17.988 7.67428C18.5063 7.07675 18.7787 6.30493 18.7502 5.51448C18.7218 4.72404 18.3947 3.97377 17.8349 3.415L16.7516 2.3325C16.4584 2.04008 16.0615 1.8756 15.6474 1.875H4.35241Z" fill="#222222"/>
<path fill-rule="evenodd" clip-rule="evenodd" d="M2.5 16.875V9.5792C3.68333 10.1409 5.06667 10.14 6.25 9.5792C6.83563 9.85804 7.47638 10.0019 8.125 10C8.795 10 9.43167 9.84837 10 9.57837C10.5856 9.85749 11.2263 10.0016 11.875 10C12.545 10 13.1808 9.84837 13.75 9.57837C14.3361 9.85589 14.9764 9.99991 15.6249 10.0001C16.2734 10.0002 16.9138 9.85646 17.5 9.5792V16.875H18.125C18.2908 16.875 18.4497 16.9409 18.5669 17.0581C18.6842 17.1753 18.75 17.3343 18.75 17.5C18.75 17.6658 18.6842 17.8248 18.5669 17.942C18.4497 18.0592 18.2908 18.125 18.125 18.125H1.875C1.70924 18.125 1.55027 18.0592 1.43306 17.942C1.31585 17.8248 1.25 17.6658 1.25 17.5C1.25 17.3343 1.31585 17.1753 1.43306 17.0581C1.55027 16.9409 1.70924 16.875 1.875 16.875H2.5ZM5 11.875C5 11.7093 5.06585 11.5503 5.18306 11.4331C5.30027 11.3159 5.45924 11.25 5.625 11.25H8.125C8.29076 11.25 8.44973 11.3159 8.56694 11.4331C8.68415 11.5503 8.75 11.7093 8.75 11.875V14.375C8.75 14.5408 8.68415 14.6998 8.56694 14.817C8.44973 14.9342 8.29076 15 8.125 15H5.625C5.45924 15 5.30027 14.9342 5.18306 14.817C5.06585 14.6998 5 14.5408 5 14.375V11.875ZM11.875 11.25C11.7092 11.25 11.5503 11.3159 11.4331 11.4331C11.3158 11.5503 11.25 11.7093 11.25 11.875V16.25C11.25 16.595 11.53 16.875 11.875 16.875H14.375C14.5408 16.875 14.6997 16.8092 14.8169 16.692C14.9342 16.5748 15 16.4158 15 16.25V11.875C15 11.7093 14.9342 11.5503 14.8169 11.4331C14.6997 11.3159 14.5408 11.25 14.375 11.25H11.875Z" fill="#222222"/>
</svg>
