<svg width="20" height="20" viewBox="0 0 20 20" fill="none" xmlns="http://www.w3.org/2000/svg">
<path fill-rule="evenodd" clip-rule="evenodd" d="M2.24009 6.79998C2.31232 6.86696 2.39703 6.91906 2.48939 6.9533C2.58175 6.98754 2.67995 7.00325 2.77838 6.99954C2.87681 6.99582 2.97355 6.97275 3.06307 6.93165C3.15258 6.89055 3.23312 6.83221 3.30009 6.75998L5.25009 4.65998V13.25C5.25009 13.4489 5.32911 13.6397 5.46976 13.7803C5.61042 13.921 5.80118 14 6.00009 14C6.19901 14 6.38977 13.921 6.53042 13.7803C6.67108 13.6397 6.75009 13.4489 6.75009 13.25V4.65998L8.70009 6.75998C8.76707 6.8322 8.84761 6.89053 8.93713 6.93163C9.02665 6.97273 9.12338 6.99579 9.22181 6.99951C9.32024 7.00322 9.41844 6.98751 9.5108 6.95328C9.60316 6.91904 9.68787 6.86695 9.76009 6.79998C9.83232 6.733 9.89065 6.65246 9.93175 6.56294C9.97285 6.47343 9.99591 6.37669 9.99963 6.27826C10.0033 6.17983 9.98763 6.08163 9.9534 5.98927C9.91916 5.89691 9.86707 5.8122 9.80009 5.73998L6.55009 2.23998C6.47989 2.16425 6.3948 2.10383 6.30016 2.06252C6.20551 2.0212 6.10336 1.99988 6.00009 1.99988C5.89683 1.99988 5.79467 2.0212 5.70003 2.06252C5.60539 2.10383 5.5203 2.16425 5.45009 2.23998L2.20009 5.73998C2.13311 5.8122 2.08101 5.89691 2.04677 5.98927C2.01253 6.08163 1.99682 6.17983 2.00053 6.27826C2.00425 6.37669 2.02732 6.47343 2.06842 6.56295C2.10952 6.65246 2.16786 6.73301 2.24009 6.79998ZM10.2401 13.2C10.1679 13.2669 10.1095 13.3475 10.0684 13.437C10.0273 13.5265 10.0042 13.6233 10.0005 13.7217C9.99682 13.8201 10.0125 13.9183 10.0468 14.0107C10.081 14.103 10.1331 14.1878 10.2001 14.26L13.4501 17.76C13.5203 17.8357 13.6054 17.8961 13.7 17.9374C13.7947 17.9787 13.8968 18.0001 14.0001 18.0001C14.1034 18.0001 14.2055 17.9787 14.3002 17.9374C14.3948 17.8961 14.4799 17.8357 14.5501 17.76L17.8001 14.26C17.8671 14.1877 17.9192 14.103 17.9534 14.0107C17.9876 13.9183 18.0033 13.8201 17.9996 13.7217C17.9959 13.6233 17.9728 13.5265 17.9317 13.437C17.8906 13.3475 17.8323 13.267 17.7601 13.2C17.6879 13.133 17.6032 13.0809 17.5108 13.0467C17.4184 13.0124 17.3202 12.9967 17.2218 13.0004C17.1234 13.0042 17.0266 13.0272 16.9371 13.0683C16.8476 13.1094 16.7671 13.1677 16.7001 13.24L14.7501 15.34V6.74998C14.7501 6.55106 14.6711 6.3603 14.5304 6.21965C14.3898 6.07899 14.199 5.99998 14.0001 5.99998C13.8012 5.99998 13.6104 6.07899 13.4698 6.21965C13.3291 6.3603 13.2501 6.55106 13.2501 6.74998V15.34L11.3001 13.24C11.2331 13.1677 11.1526 13.1094 11.0631 13.0683C10.9735 13.0272 10.8768 13.0041 10.7784 13.0004C10.6799 12.9967 10.5817 13.0124 10.4894 13.0467C10.397 13.0809 10.3123 13.133 10.2401 13.2Z" fill="#222222"/>
</svg>
