<svg width="20" height="20" viewBox="0 0 20 20" fill="none" xmlns="http://www.w3.org/2000/svg">
<path d="M9.25012 13.25C9.25012 13.4489 9.32914 13.6397 9.46979 13.7803C9.61044 13.921 9.8012 14 10.0001 14C10.199 14 10.3898 13.921 10.5304 13.7803C10.6711 13.6397 10.7501 13.4489 10.7501 13.25V4.636L13.7051 7.765C13.8428 7.90471 14.0298 7.98491 14.2259 7.98839C14.4221 7.99187 14.6118 7.91837 14.7544 7.78363C14.897 7.64889 14.9811 7.46366 14.9887 7.26763C14.9963 7.0716 14.9268 6.8804 14.7951 6.735L10.5451 2.235C10.475 2.16086 10.3905 2.10179 10.2968 2.06143C10.2031 2.02106 10.1022 2.00024 10.0001 2.00024C9.89808 2.00024 9.79712 2.02106 9.70341 2.06143C9.6097 2.10179 9.52521 2.16086 9.45512 2.235L5.20512 6.735C5.13504 6.80609 5.07987 6.89046 5.04282 6.98315C5.00577 7.07585 4.9876 7.175 4.98938 7.27481C4.99115 7.37461 5.01283 7.47306 5.05314 7.56438C5.09345 7.6557 5.15159 7.73806 5.22414 7.80661C5.2967 7.87517 5.38221 7.92856 5.47566 7.96364C5.56911 7.99873 5.66863 8.0148 5.76838 8.01093C5.86812 8.00705 5.96609 7.9833 6.05654 7.94107C6.14699 7.89884 6.2281 7.83898 6.29512 7.765L9.25012 4.636V13.25Z" fill="#222222"/>
<path d="M3.5 12.75C3.5 12.5511 3.42098 12.3603 3.28033 12.2197C3.13968 12.079 2.94891 12 2.75 12C2.55109 12 2.36032 12.079 2.21967 12.2197C2.07902 12.3603 2 12.5511 2 12.75V15.25C2 15.9793 2.28973 16.6788 2.80546 17.1945C3.32118 17.7103 4.02065 18 4.75 18H15.25C15.9793 18 16.6788 17.7103 17.1945 17.1945C17.7103 16.6788 18 15.9793 18 15.25V12.75C18 12.5511 17.921 12.3603 17.7803 12.2197C17.6397 12.079 17.4489 12 17.25 12C17.0511 12 16.8603 12.079 16.7197 12.2197C16.579 12.3603 16.5 12.5511 16.5 12.75V15.25C16.5 15.94 15.94 16.5 15.25 16.5H4.75C4.06 16.5 3.5 15.94 3.5 15.25V12.75Z" fill="#222222"/>
</svg>
