<svg width="20" height="20" viewBox="0 0 20 20" fill="none" xmlns="http://www.w3.org/2000/svg">
<path d="M10 10C10.9946 10 11.9484 9.60491 12.6517 8.90165C13.355 8.19839 13.75 7.24456 13.75 6.25C13.75 5.25544 13.355 4.30161 12.6517 3.59835C11.9484 2.89509 10.9946 2.5 10 2.5C9.00548 2.5 8.05166 2.89509 7.3484 3.59835C6.64513 4.30161 6.25005 5.25544 6.25005 6.25C6.25005 7.24456 6.64513 8.19839 7.3484 8.90165C8.05166 9.60491 9.00548 10 10 10ZM15.9188 17.5C16.6913 17.5 17.285 16.7988 17.0088 16.0763C16.4669 14.6563 15.5065 13.4345 14.2549 12.5725C13.0032 11.7104 11.5192 11.2489 9.99942 11.2489C8.47962 11.2489 6.99566 11.7104 5.74398 12.5725C4.49231 13.4345 3.53195 14.6563 2.99005 16.0763C2.71505 16.7988 3.30755 17.5 4.08005 17.5H15.9188Z" fill="#222222"/>
</svg>
